<svg width="21" height="21" xmlns="http://www.w3.org/2000/svg" xmlns:xlink="http://www.w3.org/1999/xlink" overflow="hidden"><defs><clipPath id="clip0"><rect x="15" y="12" width="21" height="21"/></clipPath><clipPath id="clip1"><rect x="16" y="12" width="20" height="20"/></clipPath><clipPath id="clip2"><rect x="16" y="12" width="20" height="20"/></clipPath><clipPath id="clip3"><rect x="16" y="12" width="20" height="20"/></clipPath></defs><g clip-path="url(#clip0)" transform="translate(-15 -12)"><g clip-path="url(#clip1)"><g clip-path="url(#clip2)"><g clip-path="url(#clip3)"><path d="M31.8333 16.5833 31.8333 24.0833 20.1667 24.0833 20.1667 16.5833ZM33.5 24.5 33.0833 24.5 33.0833 15.9583 33.5 15.9583C33.7301 15.9583 33.9167 15.7718 33.9167 15.5417 33.9167 15.3115 33.7301 15.125 33.5 15.125L26.4167 15.125 26.4167 14.7083C26.4167 14.4782 26.2301 14.2917 26 14.2917 25.7699 14.2917 25.5833 14.4782 25.5833 14.7083L25.5833 15.125 18.5 15.125C18.2699 15.125 18.0833 15.3115 18.0833 15.5417 18.0833 15.7718 18.2699 15.9583 18.5 15.9583L18.9167 15.9583 18.9167 24.5 18.5 24.5C18.2699 24.5 18.0833 24.6865 18.0833 24.9167 18.0833 25.1468 18.2699 25.3333 18.5 25.3333L24.8625 25.3333 21.6542 28.5417C21.4914 28.7062 21.4928 28.9716 21.6573 29.1344 21.8218 29.2972 22.0872 29.2958 22.25 29.1313L25.5833 25.7979 25.5833 29.5C25.5833 29.7301 25.7699 29.9167 26 29.9167 26.2301 29.9167 26.4167 29.7301 26.4167 29.5L26.4167 25.7917 29.75 29.125C29.9128 29.2878 30.1768 29.2878 30.3396 29.125 30.5024 28.9622 30.5024 28.6982 30.3396 28.5354L27.1375 25.3333 33.5 25.3333C33.7301 25.3333 33.9167 25.1468 33.9167 24.9167 33.9167 24.6865 33.7301 24.5 33.5 24.5Z" fill="#DAE3F3"/><path d="M26.2083 18.4583 29.75 18.4583 29.75 19.2917 26.2083 19.2917Z" fill="#DAE3F3"/><path d="M24.9167 18.1667 24.3333 17.5833 22.9583 18.9583 22.4167 18.4167 21.8333 19 22.9583 20.125 24.9167 18.1667Z" fill="#DAE3F3"/><path d="M26.2083 21.1667 29.75 21.1667 29.75 22 26.2083 22Z" fill="#DAE3F3"/><path d="M24.9167 20.875 24.3333 20.2917 22.9583 21.6667 22.4167 21.125 21.8333 21.7083 22.9583 22.8333 24.9167 20.875Z" fill="#DAE3F3"/></g></g></g></g></svg>