<svg width="21" height="21" xmlns="http://www.w3.org/2000/svg" xmlns:xlink="http://www.w3.org/1999/xlink" overflow="hidden"><defs><clipPath id="clip0"><rect x="928" y="12" width="21" height="21"/></clipPath><clipPath id="clip1"><rect x="928" y="12" width="20" height="20"/></clipPath><clipPath id="clip2"><rect x="928" y="12" width="20" height="20"/></clipPath><clipPath id="clip3"><rect x="928" y="12" width="20" height="20"/></clipPath></defs><g clip-path="url(#clip0)" transform="translate(-928 -12)"><g clip-path="url(#clip1)"><g clip-path="url(#clip2)"><g clip-path="url(#clip3)"><path d="M938 24.5C936.625 24.5 935.5 23.375 935.5 22 935.5 20.625 936.625 19.5 938 19.5 939.375 19.5 940.5 20.625 940.5 22 940.5 23.375 939.375 24.5 938 24.5ZM943.625 20.4375C943.5 19.9792 943.312 19.5417 943.083 19.1458L943.604 17.5833 942.417 16.3958 940.854 16.9167C940.438 16.6875 940 16.5 939.542 16.375L938.833 14.9167 937.167 14.9167 936.438 16.375C935.979 16.5 935.542 16.6875 935.146 16.9167L933.583 16.3958 932.396 17.5833 932.917 19.1458C932.688 19.5625 932.5 20 932.375 20.4583L930.917 21.1667 930.917 22.8333 932.375 23.5625C932.5 24.0208 932.688 24.4583 932.917 24.8542L932.396 26.4167 933.583 27.6042 935.146 27.0833C935.562 27.3125 936 27.5 936.458 27.625L937.188 29.0833 938.854 29.0833 939.583 27.625C940.042 27.5 940.479 27.3125 940.875 27.0833L942.438 27.6042 943.625 26.4167 943.104 24.8542C943.333 24.4375 943.521 24 943.646 23.5417L945.104 22.8125 945.104 21.1458 943.625 20.4375Z" fill="#2F5597"/></g></g></g></g></svg>